<?xml version="1.0" encoding="utf-8"?>
<!-- Generator: Adobe Illustrator 15.1.0, SVG Export Plug-In . SVG Version: 6.00 Build 0)  -->
<!DOCTYPE svg PUBLIC "-//W3C//DTD SVG 1.1//EN" "http://www.w3.org/Graphics/SVG/1.1/DTD/svg11.dtd">
<svg version="1.1" id="Layer_1" xmlns="http://www.w3.org/2000/svg" xmlns:xlink="http://www.w3.org/1999/xlink" x="0px" y="0px"
	 width="941.832px" height="254.074px" viewBox="0 0 941.832 254.074" enable-background="new 0 0 941.832 254.074"
	 xml:space="preserve">
<g>
	<g>
		<path fill="#9D706D" d="M70.128,144.866c-0.723-0.63-1.036-1.731-1.891-2.311c-1.977-1.338-5.947-1.816-8.194-0.631
			c-1.071,0.566-2.044,2.487-2.941,3.783c-0.992,1.43-2.168,2.709-2.521,3.991c2.391,0.876,4.062-1.163,6.303-1.05
			c0.818,0.041,1.467,0.586,2.312,0.63c3.406,0.175,7.103-2.135,10.926-0.63C73.846,146.824,71.525,146.088,70.128,144.866z
			 M65.505,146.338c-0.524,1.155-2.732,0.628-3.781,1.261C56.95,144.743,65.98,139.942,65.505,146.338z"/>
		<path fill="#9D706D" d="M257.968,69.226c-4.438-1.689-9.476-0.381-13.026,0.842c-5.288,1.819-7.676,3.163-12.188,6.303
			c-2.131,1.483-4.69,4.237-6.724,4.412c-3.161,0.273-4.576-2.135-6.304-3.782c8.261-8.037,22.11-18.786,20.381-37.19
			c-0.324-3.447-1.724-6.964-3.152-10.084c-1.976-4.314-4.417-9.635-9.455-9.665c-0.449,4.87,0.771,9.477,1.051,13.866
			c0.834,13.116-5.934,19.926-13.656,24.164c-1.521,0.833-4.655,2.565-5.885,2.521c-1.196-0.044-3.053-1.479-4.412-2.102
			c-1.627-0.746-3.208-1.195-4.202-2.311c0.181-1.291,1.935-1.008,2.521-1.892c-3.039-2.937-9.341-3.416-14.918-3.151
			c0.232-1.616,2.476-2.252,2.313-3.572c-2.357,0.699-4.257,1.039-6.514,2.521c-1.649,1.084-3.463,3.582-5.043,3.992
			c-1.056,0.273-2.318-0.085-3.361,0c-4.809,0.389-9.402,1.335-13.657,2.941c1.663,0.578,3.162,1.32,4.202,2.521
			c-4.998,0.922-9.141-1.578-12.606-3.572c-3.559-2.047-6.841-4.58-10.085-6.934c-6.812-4.941-12.681-10.563-16.599-17.439
			c-1.662-2.918-2.267-7.477-7.145-5.463c-1.125,4.021-0.029,7.125,0.84,10.085c0.483,1.642,0.616,3.489,1.052,4.833
			c1.13,3.488,3.784,7.485,5.882,10.716c2.244,3.454,4.709,6.648,7.145,9.455c5.307,6.115,11.64,11.165,17.859,15.338
			c-1.979,3.556-5.105,5.961-10.926,5.673c-8.075-2.322-14.553-13.617-26.475-12.606c-3.798,0.323-9.588,2.073-11.767,4.413
			c-2.655,2.849-4.366,12.877-2.102,16.598c-0.578,0.753-1.242,1.42-2.101,1.892c-2.643-2.12-5.774-3.75-8.826-5.463
			c-6.522-0.155-12.938-2.384-18.278-4.202c-1.843-0.627-4.319-1.818-5.884-1.681c-4.908,0.433-3.542,7.235-3.571,12.396
			c-8.729-1.146-15.875-3.875-25.003-4.621c-3.095,2.807-0.606,8.782,0.63,12.606c2.044,6.32,5.03,11.526,8.613,15.758
			c1.918,2.265,4.46,4.159,5.674,6.515c2.456,4.77,0.241,8.58-2.312,11.766c-7.906,5.756-16.692,11.291-26.264,15.338
			c-3.159,1.336-6.629,3.47-9.875,4.203c-4.438,1.002-8.897-0.178-13.658,0.42c-1.033,7.921,3.23,12.151,4.623,19.33
			c0.923,4.763,0.885,14.003,3.361,16.6c0.995,1.04,4.364,2.215,6.514,2.312c1.534,0.066,3.113-0.621,4.832-0.421
			c3.143,0.369,6.688,2.416,9.875,3.571c3.424,1.24,6.841,2.475,9.875,3.572c6.715,2.429,12.514,5.892,18.069,8.824
			c3.065,1.619,5.974,3.07,8.614,4.832c2.637,1.758,4.585,4.047,7.145,6.305c6.325,5.576,16.599,9.953,27.944,7.353
			c2.298-0.526,4.898-2.521,7.354-2.521c1.408,0,3.561,1.169,5.253,1.681c5.613,1.702,11.574,3.045,17.439,3.782
			c27.927,3.51,50.912-4.206,68.285-14.498c23.556-13.952,40.104-35.628,48.116-64.714c-5.401-9.727-14.572-17.504-15.968-31.938
			c6.555,2.423,12.659,6.436,17.439,10.506c0.583,0.496,1.138,1.457,1.891,1.26c-0.144-2.242,0.2-4.003,0.209-6.092
			c-5.973-5.279-12.314-11.147-19.54-14.919c-2.393-1.248-5.482-2.261-6.304-5.253c5.958,0.512,10.942,2.553,16.599,2.731
			c12.544,0.397,26.213-6.458,27.315-18.279C270.022,79.749,265.626,72.142,257.968,69.226z M73.28,87.927
			c1.576,0.182,3.571,1.181,5.672,1.681c5.261,1.251,14.176,1.944,16.81,5.253c-2.658,1.451-4.657,3.65-7.773,4.201
			c-7.345,1.3-14.427-4.096-21.642-4.201C64.637,90.69,68.582,87.386,73.28,87.927z M123.707,203.488
			c0.917-4.5,1.383-11.22-0.21-15.339c-2.623,9.073-5.714,17.681-15.969,19.121c7.92-10.248,6.128-32.6-2.942-40.133
			c0.828,5.604,3.571,10.581,2.942,17.021c-1.274,13.059-6.639,24.381-20.17,25.424c-5.058,0.391-12.998,0.869-17.439-0.42
			c-4.865-1.414-10.057-4.49-14.918-6.936c-5.038-2.532-9.966-5.084-14.499-7.143c0.361-0.76,1.621-0.623,2.732-0.631
			c-8.352-0.684-17.235-0.834-20.801-6.305c0.104-1.225,1.313-1.347,1.681-2.311c5.565,1.324,8.83-3.143,13.448-3.782
			c0.975-0.136,2.142,0.276,3.15,0c1.096-0.3,1.665-1.685,2.732-2.312c3.604-2.117,8.353-1.475,12.816-2.731
			c-4.372-2.635-8.952-2.788-13.447-1.05c-2.002,0.773-3.628,2.461-5.673,3.362c-2.565,1.13-5.535,1.448-8.194,2.311
			c-0.794,0.257-1.508,0.856-2.312,1.051c-1.402,0.337-2.935-0.056-4.202,0.42c-1.248,0.468-2.084,1.838-3.362,2.521
			c-1.82,0.974-3.558,1.129-5.463,1.683c-4.102-2.435-1.487-10.322-1.892-15.759c-0.673,0.378-0.239,1.861-0.841,2.312
			c-1.923-4.45-5.702-8.165-5.882-13.657c2.216-1.808,5.508-0.349,8.614-0.841c3.164-0.501,6.886-2.678,10.085-3.151
			c4.036-0.598,6.805,0.966,9.245,3.782c0.51-3.603-2.151-5.118-2.942-6.724c2.466-0.135,3.856-1.938,5.674-2.941
			c2.509-1.388,5.515-2.21,8.194-3.362c2.65-1.139,4.682-2.959,7.354-3.992c-0.085-0.404-0.962-0.018-0.631-0.84
			c3.158-4.057,5.091-9.338,9.666-11.977c6.47,0.101,9.448,4.902,17.859,4.202c6.941-0.578,13.496-0.918,16.81,3.571
			c0.179-0.037,0.198,0.083,0.21,0.211c0.07,0,0.141,0,0.21,0c-2.62-3.596-5.322-8.052-4.412-14.498
			c-4.812,2.615-6.823,7.813-14.918,6.934c-1.075-0.117-2.089-0.689-3.152-0.84c-10.466-1.484-19.947-8.854-25.844-17.229
			c-1.774-2.521-4.553-6.405-4.833-8.825c-0.463-3.994,2.673-7.459,6.093-7.984c3.314-0.509,6.655,1.06,9.245,1.682
			c3.838,0.92,8.207,1.439,12.396,2.521c4.112,1.062,8.288,2.355,11.977,2.941c2.273,0.361,4.751-0.248,6.724,0.42
			c0.637,0.215,0.877,1.16,1.681,1.681c2.687,1.739,7.412,1.711,7.774,5.673c9.123-3.668,22.778-1.632,28.786,3.362
			c8.69,1.218,12.417,8.903,14.288,17.86c0.663,3.176,2.576,7.822,0.84,11.135c-0.629,1.198-1.773,2.475-2.731,3.151
			c-1.05,0.742-2.428,0.639-3.782,1.472c-2.505,1.541-3.678,4.725-3.991,8.614c-0.986,12.181,6.391,22.841,11.135,30.887
			c1.752-0.281,2.19,0.751,3.572,0.841C143.373,197.802,134.518,201.623,123.707,203.488z M173.083,187.31
			c-8.623,1.471-19.601,0.291-25.634-3.361c7.215-1.656,18.761-0.482,27.525-0.421C174.82,185.265,173.458,185.794,173.083,187.31z
			 M212.793,110.408c-2.401,2.769-9.142,4.867-13.025,2.102c-0.474-1.84,1.257-2.826,1.891-4.202
			c0.528-1.146,0.299-2.497,1.26-3.572C207.257,99.881,218.093,104.3,212.793,110.408z M257.127,81.413
			c-1.214,0.973-1.121,2.744-2.521,3.151c-2.705,0.788-6.146-2.293-9.034-1.261c2,1.991,4.43,3.554,5.042,6.934
			c-5.408,0.225-7.822-2.543-13.448-2.101c0.883,1.079,1.999,1.923,1.893,3.991c-3.606,1.191-10.133,3.666-13.237,0.421
			c-0.55,0.571,0.168,2.41-0.63,2.731c-1.7,0.301-1.894-0.908-2.941-1.26c-3.562-1.259-7.972,0.055-10.926-1.472
			c-1.586-0.819-1.559-2.943-3.572-2.731c0.309,1.236,1.813,1.811,2.731,2.731c2.771,2.778,4.813,6.617,5.883,11.136
			c-2.137,0.246-2.277-1.506-3.152-2.521c-2.314-1.022-6.103,0.018-7.982,0c0.11-3.076,3.566-4.447,6.513-3.361
			c-0.369-1.035-2.008-2.612-3.152-3.572c-8.067-1.293-10.063,5.166-15.128,7.564c-1.444-2.856,1.423-4.633,1.052-7.773
			c-2.557,4.125-4.16,9.156-5.884,14.076c-1.733,4.95-3.19,10.109-5.254,14.708c0,0.63,0,1.262,0,1.892
			c-2.33,3.993-3.301,9.337-6.513,12.816c-2.42,2.623-5.151,4.137-8.405,6.514c2.485-0.54,6.281,0.516,8.195,1.892
			c2.698,1.938,3.464,6.438,5.253,10.295c1.958,4.222,5.044,5.806,5.673,11.557c0.981,8.975-2.013,12.982-8.616,14.708
			c-0.188-1.59,0.661-2.142,0.422-3.782c-1.751-0.21-3.061-0.863-4.832-1.051c0.286-1.339-0.991-1.11-1.052-2.102
			c-0.551-5.73,5.705-9.819,3.781-15.548c-1.238-3.689-6.952-5.248-11.976-4.203c1.693,0.564,5.562,2.031,5.252,4.623
			c-0.315,2.64-4.507,1.937-6.934,3.361c-2.587,1.52-4.118,9.628,0.841,9.036c1.585-0.19,2.023-2.271,4.833-2.312
			c-0.229,1.854-1.464,4.38-3.362,4.832c-6.543,1.558-11.944-8.578-7.144-13.237c-4.24,0.886-8.581,2.749-13.867,1.892
			c-0.171-0.04-0.209-0.212-0.421-0.211c2.245,1.773,2.011,6.98,0,8.825c-6.035,1.648-9.287-2.817-9.245-8.614
			c3.342-0.541,2.485,3.117,3.782,4.622c0.772-0.068,1.86,0.18,2.312-0.21c-1-3.902-1.596-8.208-5.883-8.824
			c-3.474-4.051-0.561-7.976,3.15-9.876c1.397-0.715,3.27-1.15,4.203-1.89c1.01-0.804,1.923-3.655,2.941-6.305
			c0.947-2.465,2.071-4.754,2.521-6.514c0.793-3.102,1.058-6.742,1.682-10.084c1.257-6.73,3.748-15.098,2.73-21.012
			c-0.726-4.227-5.356-10.369-10.085-8.195c0.597,0.314,1.521,0.301,2.103,0.631c1.396,2.092,4.85,5.833,3.15,9.455
			c-0.305,0.65-0.977,1.087-1.471,1.891c-0.688,1.117-0.759,2.25-1.261,2.731c-6.181,5.929-6.996-7.203-6.305-13.446
			c-1.794,2.617-3.423,5.4-6.934,6.303c-0.238-4.65,1.964-6.86,3.152-10.086c-4.684-0.059-7.711,3.356-11.347,5.043
			c-0.97-4.051,1.037-6.946,2.102-9.665c-2.136-0.033-3.281,2.741-6.304,2.521c0.268-1.974,1.538-2.944,1.892-4.833
			c-3.007-0.736-5.543,1.842-8.404,1.261c-0.937-3.401,1.225-5.487,2.1-7.774c-3.706-0.813-6.357,2.298-9.665,1.892
			c1.209-4.814,5.264-8.595,10.507-9.245c0.991-0.123,3.065-0.301,4.412,0c1.942,0.435,4.282,3.73,7.144,5.254
			c2.686,1.428,6.135,2.637,8.195,3.991c1.198,0.788,1.94,2.189,2.94,2.731c3.274,1.772,8.468,1.058,10.297-0.84
			c2.19,0.75,1.743,4.139,3.361,5.463c-1.113-10.11,3.333-16.395,8.614-20.802c-4.57,1.071-6.994-1.044-10.295-2.941
			c-12.631-7.26-25.395-16.181-27.945-32.778c0.008-0.763-1.328-0.878-0.631-1.68c2.205,0.068,2.078,2.322,2.941,3.992
			c0.648,1.252,2.333,2.841,3.782,4.412c3.872,4.201,7.786,8.678,12.397,12.186c3.097,2.358,6.735,4.178,9.875,6.514
			c5.932,4.418,17.045,7.465,24.583,2.312c-0.53-1.36-3.285-0.497-3.361-2.312c5.082-0.409,9.551-1.665,12.817-4.201
			c-0.068,0.493-0.333,0.787-0.211,1.471c3.249-0.82,6.948-2.287,11.136-1.471c-0.379,1.792-2.337,2.004-3.362,3.15
			c0.192,0.998,0.978,1.406,1.051,2.522c-5.62,0.052-9.278,2.067-11.767,5.253c2.114-0.314,5.458-0.361,7.563,0
			c0.623,0.998-1.153,1.156-1.051,2.311c3.116-0.15,5.905-2.613,8.825-1.051c1.572-0.878,3.564-1.338,4.622-2.73
			c18.626,2.246,30.831-12.297,31.097-30.257c1.848,5.772,1.109,12.608-1.05,17.229c-1.077,2.306-3.434,4.658-5.253,6.934
			c-5.102,6.385-12.215,12.797-20.801,15.128c1.124,1.258,3.357,1.403,3.362,3.782c-1.53,0.756-3.816-0.453-5.253,0.21
			c4.056,1.759,6.979,4.647,10.927,6.514c0.512-0.413-1.495-0.883-0.631-1.682c5.108,1.519,10.741,4.19,15.969,1.892
			c1.537-0.676,3.241-2.42,4.833-3.572c3.324-2.405,6.281-4.138,10.714-5.883c1.957-0.77,4.222-2.004,6.094-2.102
			c3.94-0.205,7.576,1.968,8.405,5.463c-0.631,0-1.261,0-1.891,0c1.1,1.352,2.502,2.4,2.941,4.413
			C260.313,81.656,258.485,81.3,257.127,81.413z"/>
		<path fill="#9D706D" d="M139.885,106.626c4.689,4.842,10.442-4.75,5.043-6.513C146.44,103.881,143.759,106.866,139.885,106.626z"
			/>
		<path fill="#9D706D" d="M207.751,103.685c2.066,3.548-1.577,7.146-5.043,6.514C207.426,115.175,213.269,105.378,207.751,103.685z"
			/>
	</g>
	<path fill="#F16823" d="M270.218,107.554c-3.759,4.093-8.67,7.209-14.261,8.887c0.328,3.49,0.503,7.023,0.503,10.6
		c0,61.744-50.053,111.796-111.795,111.796c-11.648,0-22.881-1.784-33.439-5.09c-5.433,2.776-11.579,4.354-18.1,4.354
		c-5.483,0-10.709-1.109-15.464-3.114c19.452,12.101,42.409,19.097,67.003,19.097c70.162,0,127.04-56.879,127.04-127.042
		C271.705,120.413,271.196,113.905,270.218,107.554z"/>
	<path fill="#F16823" d="M218.603,43.2c0.994-3.279,1.535-6.756,1.535-10.361c0-3.033-0.383-5.977-1.095-8.787
		C198.135,8.925,172.444,0,144.665,0C74.502,0,17.625,56.878,17.625,127.04c0,5.441,0.354,10.798,1.019,16.059l14.662-6.275
		c-0.28-3.225-0.436-6.485-0.436-9.783c0-6.872,0.624-13.599,1.812-20.129c-0.662-0.886-1.286-1.838-1.86-2.85
		c-4.635-8.18-4.248-17.16,0.867-20.059c2.225-1.262,4.979-1.16,7.761,0.027C58.3,43.638,98.165,15.245,144.665,15.245
		C173.017,15.245,198.896,25.808,218.603,43.2z"/>
	<g>
		<path fill="#F16823" d="M342.013,190.343h52.629v-23.752c-0.043-5.083-0.313-8.834-0.813-11.251
			c-0.834-4.208-3.25-7.167-7.25-8.876c-2.042-0.832-4.542-1.313-7.5-1.438v-1.75h47.315v1.75
			c-5.584,0.168-9.709,1.896-12.375,5.188c-1.542,2.084-2.5,4.896-2.876,8.438c-0.209,2.042-0.313,4.688-0.313,7.938v54.629
			c0.042,5.043,0.313,8.771,0.813,11.188c1.541,6.75,6.458,10.188,14.75,10.313v1.75h-47.315v-1.75
			c5.583-0.125,9.708-1.854,12.375-5.188c1.583-2.043,2.542-4.854,2.876-8.438c0.208-1.958,0.313-4.585,0.313-7.876v-27.314h-52.629
			v27.314c0.041,5.043,0.313,8.771,0.813,11.188c0.833,4.208,3.25,7.166,7.25,8.875c2.083,0.834,4.604,1.313,7.563,1.438v1.75
			H310.26v-1.75c5.583-0.125,9.709-1.854,12.376-5.188c1.583-2.084,2.541-4.896,2.875-8.438c0.208-1.959,0.313-4.584,0.313-7.877
			v-54.628c-0.042-5.083-0.313-8.834-0.813-11.251c-1.542-6.751-6.46-10.188-14.751-10.313v-1.75h47.315v1.75
			c-5.584,0.125-9.709,1.855-12.375,5.188c-1.542,2.084-2.5,4.896-2.875,8.438c-0.209,2.167-0.313,4.813-0.313,7.938V190.343z"/>
		<path fill="#F16823" d="M547.081,244.472h-48.69v-1.75c4.334-0.334,7.396-1.063,9.188-2.188c3.083-1.961,4.625-4.563,4.625-7.813
			c0-2.21-1.104-6.001-3.313-11.376l-7.126-17.563h-32.627l-3.813,10.25c-3.459,8.46-5.188,14.273-5.188,17.439
			c0,4.208,1.729,7.333,5.188,9.376c1.833,1.082,4.063,1.707,6.688,1.875v1.75h-33.19v-1.75c4.958,0,9.396-2.729,13.314-8.188
			c1.916-2.709,3.666-5.938,5.25-9.688c1.291-3.041,2.875-6.938,4.75-11.688l27.063-69.88h4.251l32.189,77.882
			c3.751,9.209,6.938,15.063,9.563,17.563c2.251,2.125,6.208,3.458,11.876,4v1.749H547.081z M500.577,200.718l-15.563-38.377
			l-14.626,38.377H500.577z"/>
		<path fill="#F16823" d="M644.462,143.276l0.938,32.253l-1.751,0.124c-6.625-21.667-17.46-32.502-32.502-32.502
			c-9.334,0-16.938,3.313-22.813,9.938c-5.293,5.96-9.313,13.272-12.063,21.938c-2.126,6.668-3.188,13.73-3.188,21.189
			c0,12.375,2.916,23.168,8.75,32.377c3.25,5.166,7.104,9.115,11.563,11.846c4.458,2.729,9.292,4.094,14.501,4.094
			c7.25,0,13.104-2.521,17.563-7.563c3.668-4.084,5.5-9.125,5.5-15.127c0-6.334-2.438-10.459-7.313-12.375
			c-2.125-0.834-5.376-1.291-9.751-1.375v-1.688h47.254v1.688c-3.625,0.375-6.293,0.854-8.001,1.438
			c-3.625,1.251-5.668,4.313-6.125,9.188c-0.209,2.459-0.313,5.271-0.313,8.438c0,1.833,0.145,5.146,0.438,9.938
			c-1.835-0.711-3.209-1.063-4.126-1.063c-1.084,0-2.459,0.583-4.124,1.751c-8.918,6.125-19.962,9.188-33.128,9.188
			c-7.918,0-15.168-1.25-21.752-3.75c-6.585-2.501-12.043-6.085-16.376-10.751c-4.001-4.252-7.021-9.292-9.063-15.127
			c-2.293-6.584-3.438-13.459-3.438-20.627c0-7.875,1.281-15.322,3.844-22.344c2.563-7.021,6.198-12.991,10.907-17.908
			c5.291-5.583,11.792-9.751,19.501-12.501c6.126-2.166,12.604-3.25,19.439-3.25c5.291,0,10.209,0.688,14.751,2.063
			c2.208,0.667,6.042,2.209,11.501,4.625c1.083,0.5,2.063,0.75,2.938,0.75c2,0,3.521-1.625,4.563-4.875H644.462L644.462,143.276z"/>
		<path fill="#F16823" d="M707.83,194.905v26.253c0.041,5.043,0.313,8.771,0.813,11.188c0.833,4.208,3.251,7.188,7.251,8.938
			c2.082,0.834,4.604,1.313,7.563,1.438v1.75h-47.379v-1.75c5.584-0.125,9.709-1.854,12.376-5.188
			c1.583-2.084,2.542-4.916,2.875-8.5c0.209-1.957,0.313-4.584,0.313-7.875v-54.567c-0.042-5.083-0.313-8.834-0.813-11.251
			c-1.542-6.751-6.459-10.188-14.752-10.313v-1.75h35.69c8.042,0,13.729,0.167,17.063,0.5c9.792,0.918,16.939,3.668,21.439,8.251
			c4.5,4.542,6.75,10.21,6.75,17.001c0,8.376-3.375,14.876-10.125,19.501c-3,2.001-7.397,3.647-13.188,4.938
			c3.333,1.334,5.813,2.875,7.438,4.625c1.583,1.834,3.771,5.625,6.563,11.376c5.958,12.293,9.876,20.001,11.751,23.126
			c2.75,4.709,5.104,7.605,7.063,8.688c1.415,0.793,3.146,1.271,5.188,1.438v1.75h-24.627c-1.334-2.917-3.834-8.585-7.501-17.001
			c-7.209-15.961-12.918-25.606-17.126-28.94c-2.792-2.458-6.459-3.666-11.001-3.625H707.83z M707.83,193.28h2.876
			c5.707,0,9.854-0.291,12.438-0.875c5.041-1.125,9.209-4.416,12.501-9.876c2.291-3.875,3.438-8.188,3.438-12.938
			c0-5.375-1.354-10.166-4.063-14.376c-3.043-4.751-7.105-7.646-12.188-8.688c-2.959-0.625-6.938-0.938-11.938-0.938h-3.063
			L707.83,193.28L707.83,193.28z"/>
		<path fill="#F16823" d="M831.954,242.722v1.75h-47.378v-1.75c5.5-0.125,9.626-1.854,12.376-5.188
			c1.583-2.084,2.541-4.896,2.875-8.438c0.208-1.958,0.313-4.604,0.313-7.938v-54.566c-0.042-5.083-0.313-8.834-0.813-11.251
			c-1.542-6.751-6.459-10.188-14.75-10.313v-1.75h47.315v1.75c-5.584,0.168-9.71,1.896-12.376,5.188
			c-1.542,2.042-2.479,4.854-2.813,8.438c-0.25,2.376-0.375,5.022-0.375,7.938v54.566c0,4.668,0.229,8.178,0.688,10.532
			c0.458,2.354,1.291,4.302,2.5,5.845C822.266,240.867,826.412,242.597,831.954,242.722z"/>
		<path fill="#F16823" d="M935.395,142.776l0.938,33.128h-1.75c-0.5-1.375-0.896-2.459-1.188-3.25
			c-2.667-7.251-4.854-12.188-6.563-14.813c-6.46-9.793-14.688-14.689-24.688-14.689c-5.5,0-10.429,1.271-14.782,3.813
			c-4.354,2.543-8.303,6.48-11.844,11.814c-6.543,9.834-9.814,21.563-9.814,35.189c0,14.043,3.042,25.336,9.126,33.878
			c6.876,9.626,16.668,14.438,29.377,14.438c7.501,0,13.917-1.688,19.253-5.063c6.375-4.084,10.563-11.666,12.563-22.751l1.75,0.313
			c-1,7.834-3.126,14.043-6.376,18.627c-6.542,9.041-17.335,13.563-32.377,13.563c-16.126,0-28.836-4.896-38.128-14.689
			c-8.751-9.207-13.126-21.396-13.126-36.564c0-11.209,2.479-21.25,7.438-30.126c4.917-8.875,12.354-15.479,22.313-19.814
			c7.667-3.375,15.604-5.063,23.813-5.063c5,0,10.084,0.75,15.251,2.25c1.209,0.375,4.416,1.438,9.626,3.188
			c1.208,0.418,2.291,0.625,3.25,0.625c1.709,0,3.126-1.333,4.25-4h1.69V142.776z"/>
	</g>
	<g>
		<path fill="#9B6B67" d="M312.415,32.646h43.102v1.617c-4.16,0.039-6.914,0.328-8.262,0.867c-1.311,0.577-2.331,1.502-3.063,2.772
			c-0.731,1.271-1.098,2.581-1.098,3.929c0,1.695,0.52,3.891,1.561,6.586c0.192,0.502,1.001,2.408,2.428,5.721l21.318,52.113
			l14.848-44.892c1.927-5.778,2.89-10.071,2.89-12.884c0-2.35-0.453-4.594-1.358-6.73c-0.904-2.139-2.129-3.804-3.668-4.998
			c-2.003-1.617-5.008-2.445-9.013-2.484v-1.617h44.024v1.617c-4.43-0.038-7.511,0.443-9.243,1.444
			c-1.35,0.771-2.447,1.917-3.293,3.438c-0.849,1.522-1.271,3.11-1.271,4.767c0,1.849,0.636,4.795,1.907,8.84l16.871,54.309
			l18.835-46.221c2.889-7.049,4.333-12.633,4.333-16.754c0-4.198-1.562-7.088-4.68-8.667c-1.503-0.771-3.756-1.155-6.761-1.155
			v-1.617h31.661v1.617c-3.582,0.309-6.277,1.137-8.089,2.484c-2.273,1.656-4.737,5.199-7.395,10.631
			c-1.003,1.887-2.582,5.412-4.737,10.572l-28.137,68.233h-2.831L388.91,53.213l-24.729,72.971h-3.12L330.44,52.462
			c-2.08-5.084-3.583-8.57-4.507-10.457c-1.58-3.158-3.679-5.277-6.297-6.355c-1.733-0.693-4.142-1.156-7.223-1.387L312.415,32.646
			L312.415,32.646z"/>
		<path fill="#9B6B67" d="M489.106,46.974c5.932,0,11.748,1.695,17.449,5.084c5.546,3.313,9.763,7.742,12.65,13.288
			c2.467,4.7,3.698,9.591,3.698,14.675c0,4.275-0.887,8.475-2.658,12.596c-1.771,4.121-4.256,7.723-7.452,10.804
			c-3.352,3.235-7.338,5.739-11.959,7.511c-4.275,1.617-8.608,2.427-13,2.427c-4.546,0-8.994-0.866-13.347-2.6
			c-4.353-1.733-8.107-4.122-11.266-7.165c-3.043-2.965-5.402-6.471-7.078-10.515c-1.675-4.044-2.513-8.204-2.513-12.479
			c0-4.66,0.962-9.109,2.889-13.346c1.925-4.237,4.622-7.877,8.088-10.92C471.774,50.093,479.939,46.974,489.106,46.974z
			 M487.894,48.938c-6.818,0-12.211,2.928-16.177,8.782c-4.392,6.471-6.587,14.27-6.587,23.398c0,8.166,2.117,15.177,6.354,21.031
			c4.429,6.162,10.034,9.244,16.813,9.244c6.777,0,12.383-3.082,16.813-9.244c4.236-5.854,6.355-12.846,6.355-20.973
			c0-9.321-2.195-17.141-6.586-23.457c-2.234-3.236-4.834-5.566-7.802-6.991C494.614,49.535,491.552,48.938,487.894,48.938z"/>
		<path fill="#9B6B67" d="M533.363,48.821h51.13v1.387l-41.077,59.395h15.946c9.513-0.077,16.138-1.541,19.875-4.392
			c2.85-2.08,5.084-5.142,6.701-9.187c0.5-1.348,0.905-2.889,1.213-4.621h1.445l-1.445,20.105h-56.215v-1.387l41.425-59.394H557.86
			c-4.738,0-8.532,0.366-11.383,1.099c-4.468,1.154-7.896,3.465-10.283,6.932c-1.387,2.08-2.216,4.469-2.484,7.164h-1.444
			L533.363,48.821z"/>
		<path fill="#9B6B67" d="M651.282,95.62V68.64c-0.039-5.316-0.115-8.705-0.229-10.169c-0.347-3.428-1.889-5.739-4.622-6.934
			c-1.232-0.538-2.87-0.981-4.91-1.329v-1.387h22.243v1.387c-2.697,0.309-4.623,0.81-5.777,1.503
			c-2.428,1.502-3.813,4.333-4.16,8.493c-0.114,0.654-0.192,3.621-0.231,8.896v42.408h-2.367l-44.487-53.5v33.683
			c0.038,5.315,0.115,8.705,0.23,10.169c0.347,3.428,1.888,5.739,4.622,6.933c1.192,0.501,2.831,0.944,4.91,1.329v1.387H594.26
			v-1.387c2.733-0.347,4.66-0.848,5.776-1.502c2.427-1.541,3.813-4.371,4.159-8.493c0.116-0.616,0.192-3.583,0.231-8.897V69.101
			c-0.078-5.854-0.193-9.128-0.348-9.821c-0.425-3.966-1.983-6.605-4.68-7.915c-1.155-0.5-2.87-0.886-5.142-1.156v-1.387h18.431
			L651.282,95.62z"/>
		<path fill="#9B6B67" d="M679.883,91.229V69.101c-0.077-5.854-0.193-9.128-0.347-9.821c-0.426-3.966-1.983-6.605-4.682-7.915
			c-1.154-0.5-2.869-0.886-5.142-1.156v-1.387h30.217v1.387c-4.083,0.656-6.798,2.022-8.146,4.103
			c-0.963,1.58-1.482,3.968-1.56,7.164c0,0.887-0.021,3.274-0.06,7.165v23.052c0.038,5.315,0.117,8.705,0.232,10.169
			c0.346,3.428,1.886,5.739,4.621,6.933c1.192,0.501,2.832,0.944,4.911,1.329v1.387h-30.217v-1.387
			c2.734-0.347,4.659-0.848,5.776-1.502c2.427-1.541,3.813-4.371,4.161-8.493C679.767,99.511,679.844,96.544,679.883,91.229z"/>
		<path fill="#9B6B67" d="M758.457,48.821l0.751,15.543h-1.388c-0.539-4.276-2.252-7.686-5.141-10.227
			c-1.89-1.541-4.199-2.543-6.936-3.005c-1.693-0.269-3.87-0.404-6.527-0.404h-12.075v26.866h3.467c3.235,0,5.547-0.25,6.934-0.752
			c1.618-0.577,2.831-1.617,3.641-3.119c0.809-1.502,1.406-3.852,1.791-7.049h1.387l-0.174,24.901h-1.386
			c-0.387-3.851-1.368-6.798-2.946-8.84c-1.695-2.118-4.835-3.196-9.418-3.235h-3.294v10.168c0,7.049,0.521,11.633,1.56,13.751
			c1.157,2.389,2.87,4.044,5.144,4.969c2.003,0.809,4.796,1.214,8.378,1.214c5.469,0,9.513-0.713,12.133-2.139
			c3.12-1.694,5.469-4.583,7.049-8.666c0.539-1.387,1.099-3.351,1.675-5.893h1.389l-0.637,18.604h-57.141v-1.387
			c2.735-0.347,4.66-0.848,5.777-1.502c2.427-1.541,3.813-4.371,4.161-8.493c0.114-0.616,0.19-3.583,0.229-8.897V69.101
			c-0.077-5.854-0.194-9.128-0.347-9.821c-0.424-3.966-1.984-6.605-4.682-7.915c-1.154-0.5-2.869-0.886-5.142-1.156v-1.387
			L758.457,48.821L758.457,48.821z"/>
		<path fill="#9B6B67" d="M827.673,48.533l0.576,20.856h-1.386c-0.386-0.885-0.675-1.617-0.867-2.195
			c-1.694-4.544-3.101-7.606-4.217-9.186c-4.123-6.047-9.359-9.071-15.716-9.071c-6.817,0-12.441,3.198-16.87,9.591
			c-4.16,6.086-6.239,13.346-6.239,21.781c0,8.629,1.926,15.562,5.777,20.799c4.354,5.933,10.553,8.898,18.604,8.898
			c3.929,0,7.376-0.693,10.342-2.08c2.965-1.387,5.236-3.37,6.816-5.951c1.35-2.195,2.427-5.315,3.235-9.359l1.388,0.23
			c-1.58,13.674-9.92,20.511-25.019,20.511c-10.283,0-18.393-3.081-24.322-9.244c-5.547-5.739-8.32-13.327-8.32-22.764
			c0-5.046,0.848-9.793,2.542-14.241c1.694-4.449,4.082-8.137,7.164-11.064c3.082-3.004,7.011-5.315,11.786-6.934
			c4.082-1.424,8.281-2.137,12.596-2.137c3.313,0,6.625,0.5,9.938,1.502c0.771,0.23,2.869,0.924,6.298,2.08
			c0.73,0.27,1.386,0.404,1.964,0.404c0.962,0,1.812-0.809,2.542-2.427L827.673,48.533L827.673,48.533z"/>
		<path fill="#9B6B67" d="M857.138,79.501l20.741-19.239c1.078-1.001,2.1-2.06,3.062-3.178c0.771-0.962,1.156-1.926,1.156-2.89
			c0-2.58-2.003-3.908-6.008-3.986v-1.387h20.104v1.387c-2.041,0.039-4.159,0.81-6.354,2.312c-1.002,0.771-3.042,2.601-6.124,5.489
			l-14.731,13.865l21.029,26.75c3.158,4.084,5.738,6.896,7.742,8.436c2.617,1.772,5.18,2.793,7.684,3.063v1.387h-30.563v-1.387
			c4.274-0.347,6.412-1.561,6.412-3.641c0-1.232-0.752-2.926-2.254-5.084c-1.271-1.81-3.679-5.006-7.222-9.59l-10.283-13.347
			l-4.392,3.986v9.244c0.038,5.315,0.115,8.705,0.229,10.169c0.349,3.428,1.889,5.739,4.622,6.933
			c1.194,0.501,2.831,0.944,4.911,1.329v1.387h-30.217v-1.387c2.734-0.347,4.66-0.848,5.778-1.502
			c2.426-1.541,3.813-4.371,4.158-8.493c0.115-0.616,0.192-3.583,0.231-8.897V69.101c-0.078-5.854-0.193-9.128-0.347-9.821
			c-0.426-3.966-1.984-6.605-4.681-7.915c-1.154-0.5-2.87-0.886-5.143-1.156v-1.387h30.217v1.387
			c-4.083,0.656-6.799,2.022-8.146,4.103c-0.965,1.58-1.483,3.968-1.563,7.164c0,0.887-0.019,3.274-0.057,7.165v10.86H857.138z"/>
		<path fill="#9B6B67" d="M916.705,91.229V69.101c-0.078-5.854-0.193-9.128-0.348-9.821c-0.424-3.966-1.983-6.605-4.68-7.915
			c-1.155-0.5-2.87-0.886-5.144-1.156v-1.387h30.219v1.387c-4.084,0.656-6.8,2.022-8.146,4.103c-0.964,1.58-1.482,3.968-1.561,7.164
			c0,0.887-0.021,3.274-0.059,7.165v23.052c0.038,5.315,0.115,8.705,0.23,10.169c0.348,3.428,1.888,5.739,4.622,6.933
			c1.193,0.501,2.832,0.944,4.912,1.329v1.387h-30.219v-1.387c2.734-0.347,4.661-0.848,5.778-1.502
			c2.427-1.541,3.813-4.371,4.159-8.493C916.59,99.511,916.665,96.544,916.705,91.229z"/>
	</g>
	<path fill="#9B6B67" d="M573.292,22.425c-0.602-0.562-1.408-0.842-2.423-0.842c-0.979,0-1.88,0.28-2.706,0.842
		c-1.991,1.313-4.002,3.447-6.031,6.405l-6.895,9.919h1.348l13.045-8.908c1.99-1.348,3.25-2.414,3.775-3.201
		s0.789-1.536,0.789-2.248C574.194,23.644,573.893,22.987,573.292,22.425z"/>
</g>
</svg>
